<svg xmlns="http://www.w3.org/2000/svg" >
    <symbol xmlns="http://www.w3.org/2000/svg" id="swipe" viewBox="0 0 490.651 490.651">
        <path d="M437.328,42.651h-128c-5.888,0-10.667,4.779-10.667,10.667s4.779,10.667,10.667,10.667h128c5.888,0,10.667-4.779,10.667-10.667S443.216,42.651,437.328,42.651z" />
        <path d="M444.88,45.787L402.213,3.12c-4.16-4.16-10.923-4.16-15.083,0c-4.16,4.16-4.16,10.923,0,15.083l35.115,35.115l-35.136,35.136c-4.16,4.16-4.16,10.923,0,15.083c2.091,2.069,4.821,3.115,7.552,3.115c2.731,0,5.461-1.045,7.552-3.115l42.667-42.667C449.04,56.709,449.04,49.947,444.88,45.787z" />
        <path d="M159.995,42.651h-128c-5.888,0-10.667,4.779-10.667,10.667s4.779,10.667,10.667,10.667h128c5.888,0,10.667-4.779,10.667-10.667S165.883,42.651,159.995,42.651z" />
        <path d="M47.077,53.317l35.115-35.115c4.16-4.16,4.16-10.923,0-15.083c-4.16-4.16-10.923-4.16-15.083,0L24.443,45.787c-4.16,4.16-4.16,10.923,0,15.083l42.667,42.667c2.091,2.069,4.821,3.115,7.552,3.115c2.731,0,5.461-1.045,7.531-3.136c4.16-4.16,4.16-10.923,0-15.083L47.077,53.317z" />
        <path d="M426.661,213.317c-8.768,0-16.939,2.667-23.723,7.211c-5.845-16.597-21.696-28.544-40.277-28.544c-8.768,0-16.939,2.667-23.723,7.211c-5.845-16.597-21.696-28.544-40.277-28.544c-7.765,0-15.061,2.091-21.333,5.739v-69.739c0-23.531-19.136-42.667-42.667-42.667c-23.531,0-42.667,19.136-42.667,42.667v181.333l-37.077-27.797c-21.973-16.491-53.248-14.293-72.725,5.163c-12.48,12.48-12.48,32.768,0,45.248l151.915,151.936c18.133,18.133,42.261,28.117,67.904,28.117h49.984c64.683,0,117.333-52.629,117.333-117.333V255.984C469.328,232.453,450.192,213.317,426.661,213.317z M447.995,373.317c0,52.928-43.072,96-96,96h-49.984c-19.968,0-38.72-7.765-52.821-21.867L97.275,295.515c-4.16-4.16-4.16-10.923,0-15.083c6.613-6.592,15.445-9.984,24.32-9.984c7.211,0,14.464,2.24,20.544,6.805l54.123,40.597c3.243,2.432,7.595,2.795,11.179,1.003c3.605-1.813,5.888-5.504,5.888-9.536V106.651c0-11.755,9.557-21.333,21.333-21.333s21.333,9.579,21.333,21.333v160c0,5.888,4.779,10.667,10.667,10.667s10.667-4.779,10.667-10.667v-53.333c0-11.755,9.557-21.333,21.333-21.333s21.333,9.579,21.333,21.333v53.333c0,5.888,4.779,10.667,10.667,10.667c5.888,0,10.667-4.779,10.667-10.667v-32c0-11.755,9.557-21.333,21.333-21.333s21.333,9.579,21.333,21.333v32c0,5.888,4.779,10.667,10.667,10.667c5.888,0,10.667-4.779,10.667-10.667v-10.667c0-11.755,9.557-21.333,21.333-21.333s21.333,9.579,21.333,21.333V373.317z" />
    </symbol>
    <symbol xmlns="http://www.w3.org/2000/svg" id="playBtn" viewBox="0 0 41.999 41.999">
        <path d="M36.068,20.176l-29-20C6.761-0.035,6.363-0.057,6.035,0.114C5.706,0.287,5.5,0.627,5.5,0.999v40c0,0.372,0.206,0.713,0.535,0.886c0.146,0.076,0.306,0.114,0.465,0.114c0.199,0,0.397-0.06,0.568-0.177l29-20c0.271-0.187,0.432-0.494,0.432-0.823S36.338,20.363,36.068,20.176z"/>
    </symbol>
    <symbol xmlns="http://www.w3.org/2000/svg" id="playBtnCircle" viewBox="0 0 512 512">
        <path d="M256,0C114.833,0,0,114.844,0,256s114.833,256,256,256s256-114.844,256-256S397.167,0,256,0z M256,490.667C126.604,490.667,21.333,385.396,21.333,256S126.604,21.333,256,21.333S490.667,126.604,490.667,256S385.396,490.667,256,490.667z"/>
        <path d="M357.771,247.031l-149.333-96c-3.271-2.135-7.5-2.25-10.875-0.396C194.125,152.51,192,156.094,192,160v192c0,3.906,2.125,7.49,5.563,9.365c1.583,0.865,3.354,1.302,5.104,1.302c2,0,4.021-0.563,5.771-1.698l149.333-96c3.042-1.958,4.896-5.344,4.896-8.969S360.813,248.99,357.771,247.031z M213.333,332.458V179.542L332.271,256L213.333,332.458z"/>
    </symbol>

    <symbol xmlns="http://www.w3.org/2000/svg" id="closeModal" viewBox="0 0 20 20">
        <path d="M11.8323 10.0157L19.6199 2.22785C20.1267 1.72129 20.1267 0.902238 19.6199 0.395672C19.1134 -0.110895 18.2943 -0.110895 17.7877 0.395672L9.9999 8.18351L2.21229 0.395672C1.70548 -0.110895 0.88667 -0.110895 0.380103 0.395672C-0.126701 0.902238 -0.126701 1.72129 0.380103 2.22785L8.16771 10.0157L0.380103 17.8035C-0.126701 18.3101 -0.126701 19.1291 0.380103 19.6357C0.632556 19.8884 0.964494 20.0153 1.29619 20.0153C1.6279 20.0153 1.9596 19.8884 2.21229 19.6357L9.9999 11.8479L17.7877 19.6357C18.0404 19.8884 18.3721 20.0153 18.7038 20.0153C19.0355 20.0153 19.3672 19.8884 19.6199 19.6357C20.1267 19.1291 20.1267 18.3101 19.6199 17.8035L11.8323 10.0157Z" fill="inherit"/>
    </symbol>
    <symbol xmlns="http://www.w3.org/2000/svg" id="rezart_logo" viewBox="0 0 446.4 267.24">
        <path d="M442.14,240.64,302,.56a1.51,1.51,0,0,0-2.33,0C298.37,1.81,170.74,221,170.74,221l-30.56-51.21.33-1.33S195.32,152,195.32,92.33,135.7,15.52,122.58,15.52H0L20.6,52.76h93.34s47.5-3.56,47.5,40.57-36.19,44.89-42.52,44.89H80.39l70.09,117.71s6.49,11.31,16.94,11.31,14.64-5.43,18.93-11.64S300.63,64.4,300.63,64.4l84.71,141.65L299,156.18,331.19,212l89,51.21s14.13,5.79,22.59-2.33S442.14,240.64,442.14,240.64ZM37.2,158.17,1.33,96.32v149s-.14,14.63,18.27,14.63,17.94-15.3,17.94-15.3Z" />
    </symbol>
    <symbol xmlns="http://www.w3.org/2000/svg" id="menuBurger" viewBox="0 0 13 9">
        <rect width="13" height="1" fill="inherit"/>
        <rect y="8" width="13" height="1" fill="inherit"/>
        <rect x="3" y="4" width="7" height="1" fill="inherit"/>
    </symbol>
</svg>